<svg width="89" height="23" viewBox="0 0 89 23" fill="none" xmlns="http://www.w3.org/2000/svg">
<path d="M0.53125 0.15625C1.19792 0.322917 1.83333 0.447917 2.4375 0.53125C3.04167 0.614583 3.57292 0.677083 4.03125 0.71875C4.57292 0.78125 5.07292 0.802083 5.53125 0.78125C6.11458 0.78125 6.84375 0.729167 7.71875 0.625C8.61458 0.520833 9.53125 0.427083 10.4688 0.34375C11.4062 0.239583 12.3021 0.177083 13.1562 0.15625C14.0312 0.114583 14.7396 0.166667 15.2812 0.3125C15.8229 0.4375 16.375 0.635417 16.9375 0.90625C17.5208 1.15625 18.0521 1.47917 18.5312 1.875C19.0104 2.25 19.4062 2.69792 19.7188 3.21875C20.0312 3.71875 20.2083 4.29167 20.25 4.9375C20.2292 5.75 20.0417 6.51042 19.6875 7.21875C19.3958 7.82292 18.9062 8.44792 18.2188 9.09375C17.5312 9.71875 16.5417 10.1979 15.25 10.5312C15.8958 10.6146 16.4479 10.7604 16.9062 10.9688C17.3854 11.1562 17.7917 11.3854 18.125 11.6562C18.4792 11.9062 18.7604 12.1875 18.9688 12.5C19.1979 12.8125 19.375 13.125 19.5 13.4375C19.8125 14.1667 19.9583 14.9792 19.9375 15.875C19.8125 17.0417 19.5729 17.9688 19.2188 18.6562C18.8854 19.3438 18.5 19.875 18.0625 20.25C17.625 20.625 17.1771 20.8854 16.7188 21.0312C16.2604 21.1771 15.8438 21.2917 15.4688 21.375C15.0938 21.4583 14.6354 21.5 14.0938 21.5C13.5521 21.5 12.9688 21.4896 12.3438 21.4688C11.7396 21.4271 11.1146 21.3958 10.4688 21.375C9.82292 21.3333 9.20833 21.3333 8.625 21.375C8.14583 21.4167 7.5625 21.4583 6.875 21.5C6.29167 21.5417 5.5625 21.5938 4.6875 21.6562C3.8125 21.6979 2.79167 21.75 1.625 21.8125C1.85417 21.6458 2.04167 21.4583 2.1875 21.25C2.35417 21.0208 2.48958 20.8229 2.59375 20.6562C2.69792 20.4479 2.79167 20.25 2.875 20.0625C2.9375 19.8958 2.98958 19.4375 3.03125 18.6875C3.07292 17.9375 3.10417 17.0417 3.125 16C3.14583 14.9375 3.15625 13.8021 3.15625 12.5938C3.17708 11.3646 3.16667 10.1875 3.125 9.0625C3.10417 7.91667 3.0625 6.90625 3 6.03125C2.95833 5.13542 2.89583 4.48958 2.8125 4.09375C2.6875 3.65625 2.52083 3.20833 2.3125 2.75C2.14583 2.35417 1.90625 1.92708 1.59375 1.46875C1.30208 1.01042 0.947917 0.572917 0.53125 0.15625ZM7.125 3.34375C7.125 3.42708 7.13542 3.70833 7.15625 4.1875C7.17708 4.60417 7.19792 5.25 7.21875 6.125C7.26042 6.97917 7.3125 8.19792 7.375 9.78125C7.89583 10.0104 8.40625 10.1354 8.90625 10.1562C9.40625 10.1562 9.85417 10.1354 10.25 10.0938C10.7083 10.0312 11.1458 9.92708 11.5625 9.78125C12.125 9.55208 12.5625 9.17708 12.875 8.65625C13.2083 8.13542 13.4271 7.59375 13.5312 7.03125C13.6562 6.44792 13.6875 5.90625 13.625 5.40625C13.5625 4.88542 13.4271 4.51042 13.2188 4.28125C12.8229 3.92708 12.3333 3.63542 11.75 3.40625C11.25 3.21875 10.6146 3.09375 9.84375 3.03125C9.09375 2.94792 8.1875 3.05208 7.125 3.34375ZM6.96875 18.1562C7.73958 18.5521 8.41667 18.8125 9 18.9375C9.58333 19.0625 10.0729 19.125 10.4688 19.125C10.9271 19.125 11.3229 19.0625 11.6562 18.9375C12.0521 18.75 12.4375 18.5 12.8125 18.1875C13.2083 17.8542 13.5 17.4688 13.6875 17.0312C13.8958 16.5729 13.9792 16.0729 13.9375 15.5312C13.8958 14.9688 13.6562 14.3542 13.2188 13.6875C12.8229 13.2083 12.3438 12.8333 11.7812 12.5625C11.2812 12.3333 10.6458 12.1875 9.875 12.125C9.125 12.0625 8.19792 12.2396 7.09375 12.6562L6.96875 18.1562ZM24.0312 9.84375C24.1354 9.71875 24.1979 9.48958 24.2188 9.15625C24.2604 8.80208 24.3438 8.40625 24.4688 7.96875C24.6146 7.53125 24.8542 7.07292 25.1875 6.59375C25.5208 6.11458 26.0625 5.66667 26.8125 5.25C27.5417 4.83333 28.25 4.58333 28.9375 4.5C29.625 4.41667 30.2812 4.44792 30.9062 4.59375C31.5312 4.73958 32.1146 4.96875 32.6562 5.28125C33.2188 5.59375 33.7292 5.9375 34.1875 6.3125C34.5 6.5625 34.75 6.92708 34.9375 7.40625C35.125 7.86458 35.2708 8.38542 35.375 8.96875C35.4792 9.55208 35.5521 10.1667 35.5938 10.8125C35.6562 11.4375 35.6979 12.0521 35.7188 12.6562C35.7396 13.2396 35.75 13.7812 35.75 14.2812C35.7708 14.7604 35.8125 15.1562 35.875 15.4688C35.9583 15.9271 36.1042 16.3229 36.3125 16.6562C36.5208 16.9688 36.75 17.2396 37 17.4688C37.25 17.6771 37.5 17.8438 37.75 17.9688C38 18.0938 38.2188 18.1875 38.4062 18.25C38.5312 18.3125 38.6458 18.3542 38.75 18.375C38.9583 18.4583 39.1042 18.4583 39.1875 18.375C39.0625 18.6667 38.9479 18.9167 38.8438 19.125C38.7396 19.3333 38.6562 19.5104 38.5938 19.6562C38.5104 19.8229 38.4375 19.9583 38.375 20.0625C38.3125 20.1875 38.2396 20.3021 38.1562 20.4062C38.0938 20.5104 38.0104 20.625 37.9062 20.75C37.8021 20.875 37.6979 21.0104 37.5938 21.1562C37.3229 21.0521 37.0625 20.9271 36.8125 20.7812C36.5833 20.6354 36.375 20.5 36.1875 20.375C35.9583 20.2292 35.75 20.0833 35.5625 19.9375C35.375 19.7917 35.1979 19.625 35.0312 19.4375C34.8854 19.2708 34.7292 19.0938 34.5625 18.9062C34.4167 18.7188 34.2917 18.5104 34.1875 18.2812C34.0625 18.5521 33.7604 18.9375 33.2812 19.4375C32.8229 19.9375 32.2188 20.3958 31.4688 20.8125C30.7188 21.2083 29.8438 21.4896 28.8438 21.6562C27.8646 21.8229 26.7812 21.7083 25.5938 21.3125C25.0729 21.1458 24.5833 20.9062 24.125 20.5938C23.6667 20.2604 23.2708 19.8646 22.9375 19.4062C22.625 18.9479 22.3958 18.4271 22.25 17.8438C22.125 17.2396 22.1354 16.5729 22.2812 15.8438C22.4271 15.1146 22.6875 14.5 23.0625 14C23.4375 13.5 23.8854 13.0938 24.4062 12.7812C24.9271 12.4688 25.5104 12.2292 26.1562 12.0625C26.8021 11.8958 27.4688 11.7812 28.1562 11.7188C28.6979 11.6979 29.2396 11.7292 29.7812 11.8125C30.2396 11.8958 30.7188 12.0521 31.2188 12.2812C31.7188 12.4896 32.1458 12.8125 32.5 13.25C32.4792 12.1458 32.4375 11.2708 32.375 10.625C32.3333 9.95833 32.2917 9.44792 32.25 9.09375C32.1667 8.67708 32.0938 8.38542 32.0312 8.21875C31.9271 8.07292 31.8125 7.90625 31.6875 7.71875C31.5833 7.53125 31.4479 7.36458 31.2812 7.21875C31.1146 7.05208 30.9062 6.91667 30.6562 6.8125C30.4062 6.70833 30.1146 6.66667 29.7812 6.6875C29.4271 6.70833 29.1458 6.80208 28.9375 6.96875C28.7292 7.13542 28.5625 7.33333 28.4375 7.5625C28.3333 7.77083 28.2708 8 28.25 8.25C28.2292 8.5 28.2396 8.71875 28.2812 8.90625C28.3229 9.03125 28.3854 9.16667 28.4688 9.3125C28.5521 9.4375 28.6667 9.57292 28.8125 9.71875C28.9583 9.86458 29.1562 9.98958 29.4062 10.0938C28.9271 10.1562 28.5 10.2083 28.125 10.25C27.75 10.2708 27.4271 10.3021 27.1562 10.3438C26.8438 10.3854 26.5729 10.4167 26.3438 10.4375C26.1146 10.4583 25.8438 10.5 25.5312 10.5625C25.2604 10.6042 24.9271 10.6562 24.5312 10.7188C24.1354 10.7812 23.6771 10.8646 23.1562 10.9688C23.2812 10.8229 23.3958 10.6875 23.5 10.5625C23.6042 10.4167 23.6979 10.2917 23.7812 10.1875C23.8646 10.0625 23.9479 9.94792 24.0312 9.84375ZM28.7188 13.5625C28.3438 13.5833 27.9688 13.6771 27.5938 13.8438C27.2188 13.9896 26.8854 14.2083 26.5938 14.5C26.3021 14.7708 26.0521 15.0938 25.8438 15.4688C25.6562 15.8229 25.5625 16.2188 25.5625 16.6562C25.5625 17.0938 25.6667 17.4792 25.875 17.8125C26.1042 18.125 26.3958 18.3854 26.75 18.5938C27.125 18.8021 27.5208 18.9271 27.9375 18.9688C28.375 19.0104 28.8021 18.9688 29.2188 18.8438C29.6146 18.6979 29.9896 18.4688 30.3438 18.1562C30.6979 17.8229 31 17.4688 31.25 17.0938C31.5 16.6979 31.6771 16.3125 31.7812 15.9375C31.8854 15.5417 31.8958 15.2188 31.8125 14.9688C31.6458 14.4271 31.2708 14.0521 30.6875 13.8438C30.1042 13.6146 29.4479 13.5208 28.7188 13.5625ZM39.8438 19.0625C39.9896 18.375 40.0938 17.7708 40.1562 17.25C40.2396 16.7083 40.3021 16.2604 40.3438 15.9062C40.3854 15.4896 40.4062 15.1354 40.4062 14.8438C40.3854 14.4896 40.3646 14.0729 40.3438 13.5938C40.3438 13.0938 40.3229 12.6042 40.2812 12.125C40.2604 11.625 40.2292 11.1875 40.1875 10.8125C40.1458 10.4167 40.0938 10.1354 40.0312 9.96875C39.9479 9.80208 39.8333 9.625 39.6875 9.4375C39.3958 9.08333 38.9688 8.73958 38.4062 8.40625C38.8854 8.30208 39.2917 8.21875 39.625 8.15625C39.9792 8.07292 40.2708 8 40.5 7.9375C40.75 7.85417 40.9688 7.78125 41.1562 7.71875C41.3229 7.65625 41.5208 7.59375 41.75 7.53125C41.9375 7.48958 42.1667 7.4375 42.4375 7.375C42.7083 7.3125 43.0208 7.23958 43.375 7.15625L43.2812 10C43.9479 9.20833 44.625 8.61458 45.3125 8.21875C46 7.82292 46.6458 7.54167 47.25 7.375C47.9375 7.16667 48.6146 7.0625 49.2812 7.0625C50.1146 7.10417 50.8854 7.23958 51.5938 7.46875C52.3229 7.69792 52.9479 7.96875 53.4688 8.28125C54.0104 8.57292 54.4479 8.88542 54.7812 9.21875C55.1146 9.55208 55.3125 9.84375 55.375 10.0938C55.625 10.9062 55.6875 11.6562 55.5625 12.3438C55.4375 13.0104 55.2708 13.6667 55.0625 14.3125C54.875 14.9375 54.7083 15.5625 54.5625 16.1875C54.4375 16.8125 54.4896 17.4896 54.7188 18.2188C54.8021 18.4062 54.8854 18.5938 54.9688 18.7812C55.0521 18.9479 55.1562 19.1146 55.2812 19.2812C55.4062 19.4479 55.5521 19.5833 55.7188 19.6875C55.4896 19.6667 55.2604 19.6562 55.0312 19.6562C54.8021 19.6354 54.5938 19.6146 54.4062 19.5938C54.1771 19.5729 53.9688 19.5521 53.7812 19.5312C53.5729 19.5104 53.2917 19.5 52.9375 19.5C52.3333 19.5 51.3958 19.5312 50.125 19.5938C50.3125 19.1562 50.4583 18.7917 50.5625 18.5C50.6875 18.1875 50.7917 17.9375 50.875 17.75C50.9583 17.5208 51.0208 17.3438 51.0625 17.2188C51.3125 16.6146 51.4583 15.9271 51.5 15.1562C51.5625 14.3854 51.5104 13.6042 51.3438 12.8125C51.2812 12.5417 51.1771 12.2188 51.0312 11.8438C50.8854 11.4688 50.6875 11.1042 50.4375 10.75C50.2083 10.3958 49.9271 10.0938 49.5938 9.84375C49.2812 9.59375 48.9167 9.44792 48.5 9.40625C48.0833 9.36458 47.6146 9.46875 47.0938 9.71875C46.5938 9.96875 46.0521 10.4271 45.4688 11.0938C45.0312 11.6562 44.6875 12.3438 44.4375 13.1562C44.2083 13.8438 44.0521 14.7083 43.9688 15.75C43.8854 16.7708 44.0104 17.9688 44.3438 19.3438C44.0521 19.3021 43.7812 19.2812 43.5312 19.2812C43.2812 19.2604 43.0729 19.2396 42.9062 19.2188C42.6979 19.1979 42.5104 19.1771 42.3438 19.1562C42.1562 19.1562 41.9479 19.1458 41.7188 19.125C41.5104 19.125 41.25 19.125 40.9375 19.125C40.625 19.1042 40.2604 19.0833 39.8438 19.0625ZM66 8.5C66.5417 8.5 67.1042 8.60417 67.6875 8.8125C68.2708 9 68.8333 9.25 69.375 9.5625C69.9167 9.85417 70.4062 10.1771 70.8438 10.5312C71.3021 10.8646 71.6771 11.1875 71.9688 11.5C72.4896 12.0625 72.8438 12.8229 73.0312 13.7812C73.2396 14.7188 73.2812 15.6875 73.1562 16.6875C73.0312 17.6667 72.7396 18.5938 72.2812 19.4688C71.8229 20.3438 71.1875 20.9896 70.375 21.4062C69.7917 21.6979 69.2188 21.9271 68.6562 22.0938C68.0938 22.2604 67.5521 22.3854 67.0312 22.4688C66.5104 22.5521 66.0208 22.5938 65.5625 22.5938C65.1042 22.5938 64.7083 22.5833 64.375 22.5625C63.75 22.5208 63.0938 22.3021 62.4062 21.9062C61.7396 21.5104 61.1042 21.0208 60.5 20.4375C59.9167 19.8542 59.4167 19.2188 59 18.5312C58.5833 17.8229 58.3333 17.1562 58.25 16.5312C58.125 15.6771 58.1042 14.7812 58.1875 13.8438C58.2708 12.9062 58.5729 12.0417 59.0938 11.25C59.6354 10.4583 60.4479 9.80208 61.5312 9.28125C62.6354 8.76042 64.125 8.5 66 8.5ZM64.9688 20.625C65.1979 20.6667 65.5104 20.6146 65.9062 20.4688C66.3021 20.3021 66.6875 20.0417 67.0625 19.6875C67.4583 19.3333 67.8021 18.8854 68.0938 18.3438C68.4062 17.7812 68.5938 17.1042 68.6562 16.3125C68.7188 15.5417 68.7188 14.8333 68.6562 14.1875C68.6146 13.5417 68.5208 12.9792 68.375 12.5C68.2292 12 68.0625 11.5938 67.875 11.2812C67.6875 10.9688 67.4896 10.75 67.2812 10.625C66.9271 10.4375 66.5 10.2917 66 10.1875C65.5 10.0625 65.0729 10.0833 64.7188 10.25C64.5521 10.3333 64.3438 10.5104 64.0938 10.7812C63.8438 11.0521 63.5938 11.3958 63.3438 11.8125C63.0938 12.2083 62.8646 12.6667 62.6562 13.1875C62.4688 13.7083 62.3333 14.25 62.25 14.8125C62.1667 15.375 62.1458 15.9792 62.1875 16.625C62.25 17.2708 62.3854 17.8854 62.5938 18.4688C62.8021 19.0312 63.0938 19.5208 63.4688 19.9375C63.8646 20.3333 64.3646 20.5625 64.9688 20.625ZM88.4375 4.65625C88.25 5.11458 88.0833 5.53125 87.9375 5.90625C87.8125 6.28125 87.6979 6.61458 87.5938 6.90625C87.4896 7.23958 87.3958 7.53125 87.3125 7.78125C87.2292 8.07292 87.1354 8.40625 87.0312 8.78125C86.9271 9.11458 86.7917 9.53125 86.625 10.0312C86.4792 10.5104 86.3021 11.0833 86.0938 11.75C85.9271 10.75 85.625 9.95833 85.1875 9.375C84.75 8.77083 84.3021 8.30208 83.8438 7.96875C83.3021 7.59375 82.7188 7.32292 82.0938 7.15625C80.9688 6.96875 80.1562 6.98958 79.6562 7.21875C79.1562 7.44792 78.8229 7.73958 78.6562 8.09375C78.5729 8.23958 78.4792 8.42708 78.375 8.65625C78.2917 8.86458 78.2188 9.08333 78.1562 9.3125C78.1146 9.54167 78.1042 9.77083 78.125 10C78.1458 10.2292 78.2396 10.4167 78.4062 10.5625C78.5104 10.6667 78.7812 10.8125 79.2188 11C79.6562 11.1667 80.1771 11.3646 80.7812 11.5938C81.4062 11.8021 82.0625 12.0312 82.75 12.2812C83.4583 12.5312 84.125 12.7812 84.75 13.0312C85.375 13.2812 85.9167 13.5312 86.375 13.7812C86.8333 14.0312 87.1354 14.2604 87.2812 14.4688C87.4062 14.6771 87.5417 14.9583 87.6875 15.3125C87.8542 15.6458 87.9688 16.0208 88.0312 16.4375C88.1146 16.8333 88.1354 17.25 88.0938 17.6875C88.0729 18.1042 87.9583 18.5208 87.75 18.9375C87.5417 19.3542 87.2083 19.7396 86.75 20.0938C86.3125 20.4479 85.7188 20.7396 84.9688 20.9688C84.0938 21.2396 83.25 21.3125 82.4375 21.1875C81.625 21.0625 80.875 20.875 80.1875 20.625C79.5208 20.375 78.9375 20.1354 78.4375 19.9062C77.9375 19.6562 77.5833 19.5521 77.375 19.5938C77.1458 19.6354 76.8854 19.75 76.5938 19.9375C76.3021 20.125 76.0208 20.3229 75.75 20.5312C75.5 20.7188 75.2812 20.8958 75.0938 21.0625C74.9062 21.2083 74.8125 21.2604 74.8125 21.2188C74.8125 21.1771 74.8438 21.0521 74.9062 20.8438C74.9896 20.6354 75.0729 20.3854 75.1562 20.0938C75.2604 19.7812 75.3542 19.4479 75.4375 19.0938C75.5417 18.7188 75.6146 18.3646 75.6562 18.0312C75.6979 17.7604 75.75 17.4271 75.8125 17.0312C75.8542 16.6771 75.9062 16.25 75.9688 15.75C76.0521 15.2292 76.1458 14.6042 76.25 13.875C76.3542 14.4167 76.5 14.8854 76.6875 15.2812C76.8958 15.6771 77.0938 16.0208 77.2812 16.3125C77.5104 16.6458 77.7292 16.9271 77.9375 17.1562C78.25 17.4479 78.6146 17.7188 79.0312 17.9688C79.4688 18.2188 79.9062 18.4375 80.3438 18.625C80.7812 18.7917 81.1979 18.8958 81.5938 18.9375C81.9896 18.9792 82.3229 18.9375 82.5938 18.8125C82.8646 18.6875 83.0938 18.4583 83.2812 18.125C83.4896 17.7917 83.6354 17.4271 83.7188 17.0312C83.8021 16.6354 83.8333 16.2604 83.8125 15.9062C83.7917 15.5312 83.6979 15.2292 83.5312 15C83.4062 14.8542 83.1146 14.6667 82.6562 14.4375C82.2188 14.2083 81.6875 13.9583 81.0625 13.6875C80.4583 13.4167 79.8125 13.1354 79.125 12.8438C78.4583 12.5521 77.8229 12.2604 77.2188 11.9688C76.6354 11.6562 76.1458 11.3646 75.75 11.0938C75.375 10.8021 75.1667 10.5417 75.125 10.3125C75.0833 9.97917 75.0521 9.61458 75.0312 9.21875C75.0104 8.80208 75.0312 8.39583 75.0938 8C75.1771 7.58333 75.3229 7.1875 75.5312 6.8125C75.7604 6.4375 76.0938 6.125 76.5312 5.875C76.8229 5.70833 77.2083 5.58333 77.6875 5.5C78.1667 5.41667 78.6979 5.375 79.2812 5.375C79.8646 5.35417 80.4688 5.375 81.0938 5.4375C81.7188 5.47917 82.3125 5.54167 82.875 5.625C83.4583 5.6875 83.9792 5.77083 84.4375 5.875C84.9167 5.97917 85.2812 6.07292 85.5312 6.15625C85.8229 6.26042 86.1354 6.27083 86.4688 6.1875C86.7604 6.125 87.0729 5.98958 87.4062 5.78125C87.7396 5.57292 88.0833 5.19792 88.4375 4.65625Z" fill="#4A4A4A"/>
</svg>
